<svg version="1.1" id="Layer_1" xmlns="http://www.w3.org/2000/svg" xmlns:xlink="http://www.w3.org/1999/xlink" x="0px" y="0px"
	 width="100%" viewBox="0 0 512 512" enable-background="new 0 0 512 512" xml:space="preserve">
<path fill="#3B82F6" opacity="1.3B82F6" stroke="none" 
	d="
M403.235229,320.994293 
	C402.769562,334.776550 403.236725,348.184967 399.529510,361.121490 
	C393.746338,381.302155 381.561584,395.957153 361.261536,402.646576 
	C356.074158,404.355957 354.718933,407.363190 354.363037,412.020813 
	C353.349060,425.290710 351.247833,438.426544 348.531799,451.431519 
	C345.504272,465.927734 336.502106,474.009674 321.949921,476.003296 
	C316.508698,476.748718 311.048248,477.183075 305.525574,477.163635 
	C273.193970,477.049774 240.861694,477.123047 208.530258,476.985565 
	C203.219299,476.962982 197.843445,476.609070 192.614761,475.719482 
	C176.132370,472.915222 167.546753,463.756500 164.775589,446.217499 
	C162.756592,433.439117 160.299301,420.705170 159.676620,407.748840 
	C159.486603,403.795197 156.446152,403.478577 153.913910,402.581909 
	C141.596375,398.220123 131.425293,391.068298 124.193985,380.044098 
	C116.886459,368.903748 112.870522,356.477509 112.802483,343.332123 
	C112.502312,285.336273 112.297874,227.334335 112.849388,169.342117 
	C113.114113,141.506149 126.456482,117.798370 155.216400,107.942551 
	C159.231812,106.566498 159.346497,103.575050 159.602463,100.472443 
	C160.763550,86.397850 162.889191,72.453323 165.682388,58.633648 
	C168.861328,42.905556 177.828506,35.404861 193.776932,33.524635 
	C199.939240,32.798134 206.060837,32.701012 212.211746,32.695545 
	C244.210327,32.667107 276.208984,32.723034 308.207550,32.674103 
	C313.562500,32.665916 318.902069,33.123016 324.074280,34.193943 
	C339.018494,37.288200 346.843536,45.998444 349.325958,61.357445 
	C351.518219,74.921257 353.722260,88.485832 354.980408,102.172249 
	C355.290192,105.541893 356.897766,106.844772 359.914215,107.978798 
	C384.087158,117.066521 397.997101,134.496948 401.413666,160.122665 
	C403.953979,179.176071 403.173340,198.357864 403.225586,217.498291 
	C403.235443,221.100723 403.648438,223.700333 407.512787,225.363724 
	C411.752106,227.188522 413.209076,231.426971 413.257263,235.735214 
	C413.417603,250.065704 413.443024,264.400970 413.238892,278.730408 
	C413.169800,283.579010 411.468109,288.014709 406.411438,289.975189 
	C403.685150,291.032227 403.246185,292.959534 403.263092,295.498047 
	C403.318573,303.830139 403.254211,312.163025 403.235229,320.994293 
M202.600906,127.134140 
	C193.644577,127.811028 184.664276,128.262070 175.736786,129.210464 
	C155.318481,131.379578 141.524673,144.635666 138.325409,164.835266 
	C136.917587,173.724060 136.268768,182.668854 136.383072,191.669769 
	C137.011017,241.120132 134.829483,290.602386 137.501175,340.019257 
	C138.544403,359.315521 148.502548,375.796631 169.452820,380.966095 
	C175.300430,382.408997 181.231430,383.341248 187.158005,383.562622 
	C204.127670,384.196564 221.114441,384.499573 238.096832,384.634369 
	C259.418213,384.803619 280.741943,384.654236 302.064606,384.686371 
	C314.549469,384.705170 326.991272,384.036804 339.400665,382.672485 
	C359.131439,380.503204 372.253632,368.926788 376.390198,349.632721 
	C377.851471,342.816864 378.652069,335.865356 378.654327,328.860748 
	C378.666626,290.879700 378.789917,252.898117 378.623566,214.917816 
	C378.555847,199.450836 379.161621,183.990036 377.787872,168.505554 
	C376.055359,148.977524 363.491791,134.051132 344.284058,130.026886 
	C334.464874,127.969666 324.495300,127.212883 314.521210,127.172516 
	C277.540283,127.022827 240.558380,127.118645 202.600906,127.134140 
z"/>
<path fill="#3B82F6" opacity="1.3B82F6" stroke="none" 
	d="
M444.550415,279.745270 
	C440.739105,282.032074 437.023438,283.309601 432.885742,283.121918 
	C426.050018,282.811798 420.582306,277.882080 419.692841,271.101196 
	C418.365112,260.979370 419.057953,250.828674 419.840942,240.739944 
	C420.517303,232.025391 430.256409,226.482849 438.971771,229.509415 
	C448.591095,232.849915 454.468597,239.807907 456.192535,249.719711 
	C458.278992,261.715881 455.340057,272.143677 444.550415,279.745270 
z"/>
<path fill="#3B82F6" opacity="1.3B82F6" stroke="none" 
	d="
M239.847565,296.3B82F6 
	C240.087433,277.545776 239.281067,259.581909 240.317932,241.503616 
	C238.211990,242.005295 237.132462,243.810165 235.776093,245.144104 
	C226.985855,253.788940 218.296112,262.535858 209.524139,271.199402 
	C203.992004,276.663147 197.618500,279.990082 189.683853,277.317841 
	C181.136063,274.439087 177.101013,267.662537 176.041763,259.207642 
	C175.340820,253.612778 178.046585,248.993149 181.995667,244.991333 
	C196.740997,230.049118 211.414627,215.035812 226.062515,199.997879 
	C232.456055,193.434097 238.627426,186.652481 245.069855,180.138062 
	C253.712280,171.399033 263.106079,171.546295 271.641113,180.416168 
	C291.857605,201.425735 312.000366,222.506439 332.274567,243.460052 
	C337.877045,249.250290 340.987915,255.492126 338.425415,263.723969 
	C333.887878,278.300537 318.871826,282.677582 307.800507,272.258514 
	C298.461426,263.469574 289.580475,254.194778 280.442200,245.190384 
	C279.204956,243.971268 278.280487,242.176102 275.409546,242.055237 
	C275.409546,249.863846 275.408051,257.600128 275.409790,265.336395 
	C275.414154,284.665558 275.369415,303.994995 275.457825,323.323761 
	C275.482483,328.710022 274.411438,333.559479 270.414093,337.448151 
	C265.500488,342.228210 259.753876,344.340546 253.064835,342.210938 
	C246.351990,340.073700 241.956314,335.379272 240.714493,328.417664 
	C238.829819,317.852386 240.245590,307.139740 239.847565,296.3B82F6 
z"/>
</svg>