<svg version="1.1" id="Layer_1" xmlns="http://www.w3.org/2000/svg" xmlns:xlink="http://www.w3.org/1999/xlink" x="0px" y="0px"
	 width="100%" viewBox="0 0 1024 672" enable-background="new 0 0 1024 672" xml:space="preserve">
<path fill="#3B82F6" opacity="1.000000" stroke="none" 
	d="
M457.165253,406.280640 
	C440.284119,405.048737 434.444855,399.969177 431.654053,383.972015 
	C430.369781,376.610535 428.858490,369.248596 428.708466,361.740448 
	C428.656830,359.159637 427.628876,357.895752 425.222260,357.056274 
	C405.475220,350.168213 397.429810,334.643860 397.068207,315.305176 
	C396.373810,278.169464 396.515350,241.007263 396.994720,203.864899 
	C397.249725,184.107758 404.867340,168.194733 424.845947,160.785873 
	C427.959381,159.631302 428.485809,157.257278 428.650757,154.467117 
	C429.191498,145.321335 430.758301,136.316528 432.663055,127.379326 
	C434.877594,116.988449 441.599670,111.174393 452.256989,110.767799 
	C479.560425,109.726158 506.876038,109.643021 534.177368,110.783646 
	C546.459900,111.296791 553.577209,118.003525 555.358948,129.977478 
	C556.678955,138.847778 558.064087,147.710052 559.219055,156.602036 
	C559.502747,158.786240 560.521057,159.843353 562.382141,160.549744 
	C582.716431,168.268036 590.538513,184.197067 591.116211,204.717758 
	C591.383301,214.206848 591.274536,223.706726 591.316711,233.201782 
	C591.325684,235.221039 591.223389,237.137238 593.482605,238.313492 
	C597.190674,240.244064 598.176819,243.790314 598.213440,247.594086 
	C598.293701,255.921524 598.230347,264.250641 598.187683,272.578888 
	C598.167969,276.438690 597.206116,279.972107 593.469543,281.836670 
	C590.855896,283.140930 591.381592,285.334930 591.327026,287.421875 
	C591.031616,298.731415 591.927795,310.069000 590.402527,321.350372 
	C588.068542,338.613892 579.647949,351.180481 562.760254,357.137329 
	C560.363953,357.982605 559.428650,359.244995 559.105713,361.747620 
	C558.085510,369.654694 556.977539,377.562592 555.516235,385.397949 
	C552.692749,400.537201 546.193787,406.123505 530.605103,406.258728 
	C506.285950,406.469696 481.963501,406.300262 457.165253,406.280640 
M560.601990,178.837463 
	C552.891541,173.949753 543.967102,173.631104 535.472473,173.585464 
	C504.833771,173.420807 474.165710,172.202759 443.552216,174.395187 
	C426.322174,175.629135 417.471619,183.187561 414.708771,198.799255 
	C413.871979,203.527649 413.425171,208.386505 413.405762,213.188049 
	C413.287262,242.514847 413.392944,271.842468 413.296967,301.169434 
	C413.278900,306.683563 413.676514,312.137543 414.391998,317.579620 
	C416.363922,332.578644 426.452301,342.786133 441.497437,343.531830 
	C476.779785,345.280670 512.094971,345.588989 547.385681,343.616394 
	C560.101807,342.905609 569.125122,335.695770 572.266663,323.999603 
	C573.550781,319.218536 574.513367,314.184662 574.541687,309.259583 
	C574.736145,275.434357 574.894836,241.604614 574.502075,207.782852 
	C574.372620,196.635696 572.001587,185.779480 560.601990,178.837463 
z"/>
<path fill="#3B82F6" opacity="1.000000" stroke="none" 
	d="
M225.451538,491.563293 
	C224.533188,489.568573 223.757965,487.913116 222.959930,486.268768 
	C222.917358,486.181061 222.682449,486.186707 222.313049,486.090668 
	C222.313049,502.433990 222.163651,518.722107 222.405563,535.004456 
	C222.476608,539.786682 220.988373,541.436401 216.152222,541.294617 
	C204.148483,540.942566 205.633545,542.251099 205.595001,530.919739 
	C205.514542,507.268463 205.614899,483.616150 205.424576,459.966034 
	C205.391083,455.804260 206.711380,454.261414 210.845367,454.568878 
	C214.490784,454.840027 218.200790,454.903687 221.831070,454.543304 
	C225.958801,454.133545 227.658447,456.078217 229.063782,459.648987 
	C236.431122,478.368103 244.028137,496.996826 252.061493,516.938171 
	C255.559464,508.165710 258.598541,500.557159 261.627533,492.944580 
	C266.121216,481.650909 270.673615,470.379822 275.053101,459.042023 
	C276.209991,456.047058 277.739563,454.363892 281.230072,454.553741 
	C285.715424,454.797699 290.226166,454.676605 294.722809,454.574799 
	C297.421997,454.513672 298.576721,455.443054 298.563354,458.340485 
	C298.443329,484.333374 298.386932,510.326935 298.454773,536.319946 
	C298.464539,540.061462 297.000549,541.293457 293.426636,541.238770 
	C280.497437,541.040710 281.982391,542.592957 281.935577,530.299438 
	C281.882324,516.303101 281.874725,502.306610 281.847534,488.310181 
	C281.846252,487.648590 281.847382,486.987000 281.105194,485.980835 
	C280.280182,487.764618 279.375763,489.516418 278.642731,491.337250 
	C272.735931,506.009186 266.798309,520.669373 261.021088,535.392395 
	C259.559235,539.117920 257.931671,541.611023 253.195251,541.332886 
	C248.815018,541.075684 245.470856,541.043213 243.499954,535.851379 
	C237.887482,521.066895 231.607315,506.535767 225.451538,491.563293 
z"/>
<path fill="#3B82F6" opacity="1.000000" stroke="none" 
	d="
M522.692993,456.495758 
	C554.987488,442.492096 586.271851,463.194702 586.395935,498.094208 
	C586.433472,508.664368 583.726929,518.195496 577.137207,526.429932 
	C575.089172,528.989075 575.290771,530.760437 577.452332,532.796570 
	C577.933960,533.250305 578.317871,533.808838 578.739746,534.324768 
	C585.457153,542.540527 585.405334,542.474304 577.040344,548.968872 
	C575.046814,550.516663 573.332458,550.933411 572.091492,548.674438 
	C567.113647,539.612732 560.377441,539.971985 550.990173,541.957153 
	C522.680664,547.943726 499.110504,529.320312 498.063446,500.326233 
	C497.382416,481.468140 504.497955,465.787659 522.692993,456.495758 
M562.954468,515.902283 
	C565.540649,516.286865 565.808594,514.033142 566.579773,512.545532 
	C568.286499,509.253357 569.079529,505.614990 569.370605,501.984863 
	C570.273071,490.731598 568.579102,480.030212 558.936462,472.796783 
	C550.559326,466.512726 540.886963,466.354980 531.369080,470.161804 
	C520.308044,474.585907 514.522827,486.023224 515.372681,500.717407 
	C516.436707,519.116272 531.381958,530.830261 548.483154,526.679260 
	C549.624756,526.402161 550.799866,526.231140 551.170105,524.394043 
	C550.142700,523.199951 548.960266,521.830872 547.783447,520.456970 
	C539.533142,510.825531 541.103394,513.744385 549.595032,506.908020 
	C551.658752,505.246582 553.320068,505.203430 555.108154,507.377686 
	C557.431580,510.202728 559.972961,512.848572 562.954468,515.902283 
z"/>
<path fill="#3B82F6" opacity="1.000000" stroke="none" 
	d="
M475.433105,523.449829 
	C478.248901,521.254395 488.832947,523.449707 489.683014,526.149292 
	C490.182007,527.733887 489.089996,529.002258 488.343475,530.265747 
	C482.351929,540.406860 469.086304,545.167786 455.888702,541.938232 
	C437.450714,537.426392 428.556274,519.385254 434.590637,498.738586 
	C440.256561,479.352631 463.737000,470.931000 480.159973,482.585815 
	C490.106445,489.644531 492.853241,499.983063 492.253204,511.579987 
	C492.099915,514.541992 489.877869,514.316040 487.890656,514.319946 
	C477.239410,514.340698 466.588074,514.330139 455.936768,514.330444 
	C454.138947,514.330505 452.341095,514.330444 450.590637,514.330444 
	C450.078827,520.676819 452.921265,525.519592 458.196625,527.894592 
	C464.361481,530.670105 469.792389,529.342102 475.433105,523.449829 
M469.552338,492.687500 
	C459.933685,489.047455 451.604370,493.166412 450.871246,502.311920 
	C459.212433,502.311920 467.521118,502.311920 476.272522,502.311920 
	C475.389160,498.044006 473.354950,495.205811 469.552338,492.687500 
z"/>
<path fill="#3B82F6" opacity="1.000000" stroke="none" 
	d="
M711.810181,524.720459 
	C714.944092,527.177185 712.579346,529.120056 711.472473,530.865051 
	C701.681702,546.300049 675.979614,547.043945 663.711182,532.434875 
	C651.623657,518.041199 653.511108,485.453491 678.430298,478.537567 
	C696.195801,473.607086 712.907715,484.445648 715.372253,502.747589 
	C716.931702,514.327637 716.931702,514.330811 705.187561,514.335449 
	C696.031799,514.338989 686.874451,514.432129 677.721008,514.286987 
	C673.601868,514.221802 672.828430,515.700500 674.204407,519.425842 
	C677.876404,529.367859 689.618774,532.983093 696.659058,525.484741 
	C700.590393,521.297546 703.779297,521.091614 708.198730,523.390198 
	C709.221741,523.922241 710.378113,524.198120 711.810181,524.720459 
M699.233887,500.116821 
	C696.037292,493.256012 691.428589,490.459320 684.793701,491.354065 
	C679.335022,492.090179 675.131226,496.395172 674.216614,502.652588 
	C682.025696,502.652588 689.767090,502.666443 697.508240,502.637238 
	C698.623779,502.633026 699.381531,502.056488 699.233887,500.116821 
z"/>
<path fill="#3B82F6" opacity="1.000000" stroke="none" 
	d="
M360.989807,485.993347 
	C379.129120,505.154449 371.430145,535.847107 347.295532,541.858276 
	C329.116455,546.386108 311.692963,537.275024 307.500397,520.235107 
	C302.902100,501.546478 310.086975,483.404968 329.029175,478.607056 
	C340.408234,475.724884 351.575470,477.117401 360.989807,485.993347 
M352.862427,519.197693 
	C353.378601,517.444336 354.146484,515.721863 354.366638,513.932129 
	C355.238708,506.843140 354.226776,500.151611 348.454559,495.275238 
	C343.807465,491.349396 338.356598,490.415985 332.525513,492.605804 
	C324.918671,495.462494 320.844635,504.901154 322.895142,514.949890 
	C324.574707,523.180847 328.731842,527.476990 336.073059,528.568604 
	C342.878082,529.580383 348.744965,526.504028 352.862427,519.197693 
z"/>
<path fill="#3B82F6" opacity="1.000000" stroke="none" 
	d="
M619.588379,527.283813 
	C628.478149,527.159180 633.502686,522.278381 633.652344,513.640198 
	C633.822510,503.820374 633.843750,493.992462 633.637573,484.174225 
	C633.555847,480.282990 634.896545,478.842407 638.788208,478.878448 
	C651.456360,478.995972 649.234436,478.255402 649.318237,489.144348 
	C649.437439,504.626678 649.201355,520.112793 649.433228,535.592590 
	C649.500244,540.068665 647.898254,541.849854 643.652771,541.129700 
	C639.999634,540.510010 635.039307,543.540344 633.086304,537.176697 
	C628.711365,540.576843 623.958252,542.452026 618.384033,542.472351 
	C603.618774,542.526245 593.880859,533.239319 593.719238,518.397339 
	C593.595886,507.077515 593.878601,495.750519 593.590149,484.436676 
	C593.473694,479.867737 595.259094,478.768921 599.442505,478.845398 
	C611.112976,479.058838 609.210754,478.354034 609.330566,488.804199 
	C609.420349,496.628082 609.263855,504.455048 609.378479,512.278259 
	C609.502197,520.719299 612.329346,524.865417 619.588379,527.283813 
z"/>
<path fill="#3B82F6" opacity="1.000000" stroke="none" 
	d="
M753.841797,520.305786 
	C750.698120,517.397217 746.879883,517.344360 743.384827,516.409485 
	C741.142151,515.809692 738.807495,515.534058 736.589844,514.862915 
	C726.041748,511.670593 721.028381,504.887512 721.618103,494.769592 
	C722.116150,486.223236 728.513062,479.638519 738.691406,478.020721 
	C744.423523,477.109619 750.311646,477.069153 756.009583,478.793396 
	C762.138184,480.647980 766.436035,484.438904 768.533081,490.624084 
	C769.454224,493.340851 769.289795,495.155121 765.872986,495.471466 
	C763.894592,495.654633 761.885315,495.958069 759.997742,496.550690 
	C757.727539,497.263367 756.360901,496.795929 755.069153,494.683167 
	C752.171509,489.943878 747.459106,489.759216 742.684204,490.574402 
	C740.052246,491.023773 738.047668,492.842804 737.662170,495.533112 
	C737.237366,498.497345 739.432556,500.193695 741.870850,500.980743 
	C745.492676,502.149841 749.245361,502.940674 752.973999,503.746338 
	C764.924072,506.328522 770.768005,512.992188 770.300720,523.876099 
	C769.974426,531.475830 765.750366,536.452026 759.138550,539.710815 
	C745.742737,546.313293 727.967163,542.213318 721.859680,531.084412 
	C718.368042,524.722046 718.712524,524.014648 725.670959,522.129700 
	C729.933594,520.974976 733.540894,519.704285 736.289307,525.376282 
	C738.508850,529.956848 746.378845,531.153992 751.130798,528.854736 
	C754.798340,527.080200 755.695129,524.280090 753.841797,520.305786 
z"/>
<path fill="#3B82F6" opacity="1.000000" stroke="none" 
	d="
M409.093201,501.206451 
	C411.354858,494.891937 413.543579,488.964203 415.557404,482.977631 
	C416.370270,480.561035 417.768127,479.431458 420.321930,479.597412 
	C424.578156,479.874023 428.901276,479.056885 432.998108,480.116791 
	C433.603638,481.768738 433.013580,482.984467 432.536133,484.226990 
	C425.916870,501.453888 419.224518,518.653442 412.750519,535.934753 
	C411.327545,539.733215 409.361237,541.429382 405.096802,541.276184 
	C389.995087,540.733521 393.745148,543.445374 388.304352,529.802734 
	C382.821960,516.055664 377.467255,502.257538 372.093781,488.467316 
	C371.081818,485.870300 370.244476,483.205261 369.035553,479.736725 
	C375.087372,479.736725 380.476837,479.594360 385.852570,479.804474 
	C388.105835,479.892578 388.361176,482.237762 388.918091,483.913666 
	C392.376556,494.320831 395.758606,504.753387 399.197235,515.167175 
	C399.865021,517.189575 400.670654,519.166382 401.705841,521.953552 
	C404.293976,514.670837 406.621948,508.120239 409.093201,501.206451 
z"/>
<path fill="#3B82F6" opacity="1.000000" stroke="none" 
	d="
M771.315430,482.128662 
	C771.465942,479.561371 772.896912,478.793518 774.738708,478.952606 
	C778.894897,479.311493 779.713745,477.187195 779.679321,473.511536 
	C779.591003,464.085602 778.361938,464.673431 788.484924,464.640350 
	C796.198364,464.615143 796.198364,464.639984 796.246948,472.212952 
	C796.289551,478.850708 796.289612,478.850708 802.840759,478.885132 
	C811.436646,478.930237 812.968384,480.992767 811.313354,489.662964 
	C810.820312,492.246185 809.180481,492.199066 807.316956,492.321716 
	C796.217590,493.052551 796.208008,493.060516 796.210144,504.418915 
	C796.211060,509.250519 796.150696,514.086182 796.321716,518.912781 
	C796.549805,525.348145 799.291443,527.889526 805.729675,527.733704 
	C808.453308,527.667847 810.970764,527.064514 811.316528,531.255737 
	C811.991760,539.438904 811.635437,540.685547 806.712219,541.654053 
	C790.161865,544.909668 779.726196,536.335632 779.696716,519.446777 
	C779.683960,512.115601 779.584045,504.782043 779.742310,497.454315 
	C779.815186,494.078308 779.154419,491.894073 775.149109,492.263153 
	C772.523743,492.505127 771.696716,490.885559 771.654907,488.528778 
	C771.619568,486.532501 771.427917,484.538971 771.315430,482.128662 
z"/>
<path fill="#3B82F6" opacity="1.000000" stroke="none" 
	d="
M615.993896,276.555847 
	C606.433594,278.478577 601.802185,274.865173 601.712036,265.800262 
	C601.662537,260.825623 601.559509,255.844162 601.751160,250.876221 
	C602.043518,243.300156 608.740417,238.943069 615.755554,241.752243 
	C623.199951,244.733353 626.806396,250.699661 627.115845,258.390442 
	C627.442444,266.507294 624.060486,272.846893 615.993896,276.555847 
z"/>
<path fill="#3B82F6" opacity="1.000000" stroke="none" 
	d="
M462.512115,232.512421 
	C470.036469,224.701645 477.292725,217.122894 484.598389,209.592056 
	C491.366516,202.615295 497.284668,202.404068 503.906647,209.240250 
	C517.579407,223.355240 531.106689,237.611282 544.684814,251.817886 
	C548.433167,255.739716 550.028137,260.062622 547.689880,265.438812 
	C543.604187,274.832947 534.702881,276.934845 527.144531,270.020874 
	C523.706787,266.876129 520.503174,263.473267 517.229492,260.151947 
	C513.967651,256.842621 510.751099,253.488708 507.148987,249.777634 
	C505.945984,252.080063 506.354034,253.892715 506.349548,255.594742 
	C506.306366,271.918549 506.377655,288.242920 506.269806,304.566162 
	C506.226807,311.073700 502.274719,315.686035 496.096985,317.003113 
	C491.158112,318.056091 485.654877,315.132080 483.459320,310.180298 
	C482.367981,307.718994 481.947083,305.052460 481.939636,302.388702 
	C481.891449,285.097046 481.914886,267.805206 481.914886,249.901825 
	C477.129944,254.623947 472.489624,259.251556 467.792053,263.820282 
	C465.168457,266.371948 462.611725,269.033020 459.739136,271.279480 
	C454.265289,275.560272 448.182007,275.076172 443.549011,270.308472 
	C438.560028,265.174438 437.994232,257.755096 442.673615,252.742599 
	C449.036407,245.926804 455.719727,239.410233 462.512115,232.512421 
z"/>
</svg>